<svg width="20" height="20" viewBox="0 0 20 20" fill="none" xmlns="http://www.w3.org/2000/svg">
<path fill-rule="evenodd" clip-rule="evenodd" d="M10 1.25C8.62437 1.25 7.38967 2.15103 6.99186 3.47704L6.97463 3.53449C5.65627 3.68154 4.346 3.925 3.05445 4.26488L1.92427 4.5623C1.59046 4.65014 1.39106 4.99197 1.47891 5.32578C1.56675 5.65959 1.90857 5.85899 2.24239 5.77114L3.37257 5.47373C7.7169 4.33048 12.2831 4.33048 16.6274 5.47373L17.7576 5.77114C18.0914 5.85899 18.4332 5.65959 18.5211 5.32578C18.6089 4.99197 18.4095 4.65014 18.0757 4.5623L16.9455 4.26488C15.654 3.925 14.3437 3.68154 13.0254 3.53449L13.0081 3.47704C12.6103 2.15103 11.3756 1.25 10 1.25ZM11.624 3.41465C11.2889 2.85903 10.6742 2.5 10 2.5C9.32581 2.5 8.71108 2.85903 8.376 3.41465C9.4577 3.35017 10.5423 3.35017 11.624 3.41465Z" fill="#CC312D"/>
<path d="M3.25562 6.21335C3.59812 6.17043 3.91056 6.41328 3.95348 6.75578L5.06804 15.65C5.18559 16.588 5.9831 17.2918 6.92849 17.2918H13.0715C14.0169 17.2918 14.8144 16.588 14.932 15.65L16.0465 6.75578C16.0894 6.41328 16.4019 6.17043 16.7444 6.21335C17.0869 6.25627 17.3297 6.56871 17.2868 6.91121L16.1723 15.8054C15.9763 17.3688 14.6471 18.5418 13.0715 18.5418H6.92849C5.35284 18.5418 4.02366 17.3688 3.82774 15.8054L2.71318 6.91121C2.67026 6.56871 2.91312 6.25627 3.25562 6.21335Z" fill="#CC312D"/>
</svg>
